{
    "asset" : {
        "generator" : "Khronos glTF Blender I/O v0.9.35",
        "version" : "2.0"
    },
    "scene" : 0,
    "scenes" : [
        {
            "name" : "Scene",
            "nodes" : [
                0,
                1,
                2,
                3,
                4,
                5,
                6,
                7,
                8,
                9,
                10,
                11,
                12,
                13,
                14
            ]
        }
    ],
    "nodes" : [
        {
            "name" : "Light",
            "rotation" : [
                0.16907575726509094,
                0.7558803558349609,
                -0.27217137813568115,
                0.570947527885437
            ],
            "translation" : [
                4.076245307922363,
                5.903861999511719,
                -1.0054539442062378
            ]
        },
        {
            "name" : "Camera",
            "rotation" : [
                0.483536034822464,
                0.33687159419059753,
                -0.20870360732078552,
                0.7804827094078064
            ],
            "translation" : [
                7.358891487121582,
                4.958309173583984,
                6.925790786743164
            ]
        },
        {
            "name" : "Light.001",
            "rotation" : [
                0.5232754945755005,
                0.34203392267227173,
                -0.7269423604011536,
                0.284166157245636
            ],
            "translation" : [
                4.076245307922363,
                5.903862476348877,
                -1.0054532289505005
            ]
        },
        {
            "name" : "Camera.001",
            "rotation" : [
                0.8937963247299194,
                0.09062855690717697,
                -0.3857799172401428,
                0.20997287333011627
            ],
            "translation" : [
                7.358891487121582,
                4.958308696746826,
                6.925792217254639
            ]
        },
        {
            "name" : "Light.002",
            "rotation" : [
                -0.5709477066993713,
                0.2721712291240692,
                0.7558802962303162,
                0.16907566785812378
            ],
            "translation" : [
                4.076245307922363,
                5.903862953186035,
                -1.0054525136947632
            ]
        },
        {
            "name" : "Camera.002",
            "rotation" : [
                -0.7804825901985168,
                0.20870345830917358,
                0.33687177300453186,
                0.4835361838340759
            ],
            "translation" : [
                7.358891487121582,
                4.958308219909668,
                6.925793647766113
            ]
        },
        {
            "name" : "Light.003",
            "rotation" : [
                0.5232754945755005,
                0.34203392267227173,
                -0.7269423604011536,
                0.284166157245636
            ],
            "translation" : [
                4.076245307922363,
                5.903862476348877,
                -1.0054532289505005
            ]
        },
        {
            "name" : "Camera.003",
            "rotation" : [
                0.8937963247299194,
                0.09062855690717697,
                -0.3857799172401428,
                0.20997287333011627
            ],
            "translation" : [
                7.358891487121582,
                4.958308696746826,
                6.925792217254639
            ]
        },
        {
            "name" : "Light.004",
            "rotation" : [
                -0.5709477066993713,
                0.2721712291240692,
                0.7558802962303162,
                0.16907566785812378
            ],
            "translation" : [
                4.076245307922363,
                5.903862953186035,
                -1.0054525136947632
            ]
        },
        {
            "name" : "Camera.004",
            "rotation" : [
                -0.7804825901985168,
                0.20870345830917358,
                0.33687177300453186,
                0.4835361838340759
            ],
            "translation" : [
                7.358891487121582,
                4.958308219909668,
                6.925793647766113
            ]
        },
        {
            "name" : "Light.005",
            "rotation" : [
                0.5232754945755005,
                0.34203392267227173,
                -0.7269423604011536,
                0.284166157245636
            ],
            "translation" : [
                4.076245307922363,
                5.903862476348877,
                -1.0054532289505005
            ]
        },
        {
            "name" : "Camera.005",
            "rotation" : [
                0.8937963247299194,
                0.09062855690717697,
                -0.3857799172401428,
                0.20997287333011627
            ],
            "translation" : [
                7.358891487121582,
                4.958308696746826,
                6.925792217254639
            ]
        },
        {
            "name" : "Light.006",
            "rotation" : [
                -0.5709477066993713,
                0.2721712291240692,
                0.7558802962303162,
                0.16907566785812378
            ],
            "translation" : [
                4.076245307922363,
                5.903862953186035,
                -1.0054525136947632
            ]
        },
        {
            "name" : "Camera.006",
            "rotation" : [
                -0.7804825901985168,
                0.20870345830917358,
                0.33687177300453186,
                0.4835361838340759
            ],
            "translation" : [
                7.358891487121582,
                4.958308219909668,
                6.925793647766113
            ]
        },
        {
            "mesh" : 0,
            "name" : "Sphere",
            "rotation" : [
                0.7071068286895752,
                0,
                0,
                0.7071067094802856
            ]
        }
    ],
    "materials" : [
        {
            "doubleSided" : true,
            "name" : "world.002",
            "pbrMetallicRoughness" : {
                "baseColorTexture" : {
                    "index" : 0,
                    "texCoord" : 0
                },
                "metallicFactor" : 0,
                "roughnessFactor" : 0.5
            }
        }
    ],
    "meshes" : [
        {
            "name" : "Sphere.001",
            "primitives" : [
                {
                    "attributes" : {
                        "POSITION" : 0,
                        "NORMAL" : 1,
                        "TEXCOORD_0" : 2
                    },
                    "indices" : 3,
                    "material" : 0
                }
            ]
        }
    ],
    "textures" : [
        {
            "source" : 0
        }
    ],
    "images" : [
        {
            "bufferView" : 4,
            "mimeType" : "image/jpeg",
            "name" : "2k_uranus"
        }
    ],
    "accessors" : [
        {
            "bufferView" : 0,
            "componentType" : 5126,
            "count" : 559,
            "max" : [
                1.000000238418579,
                1.0000003576278687,
                1
            ],
            "min" : [
                -0.9999998211860657,
                -1,
                -1
            ],
            "type" : "VEC3"
        },
        {
            "bufferView" : 1,
            "componentType" : 5126,
            "count" : 559,
            "type" : "VEC3"
        },
        {
            "bufferView" : 2,
            "componentType" : 5126,
            "count" : 559,
            "type" : "VEC2"
        },
        {
            "bufferView" : 3,
            "componentType" : 5123,
            "count" : 2880,
            "type" : "SCALAR"
        }
    ],
    "bufferViews" : [
        {
            "buffer" : 0,
            "byteLength" : 6708,
            "byteOffset" : 0
        },
        {
            "buffer" : 0,
            "byteLength" : 6708,
            "byteOffset" : 6708
        },
        {
            "buffer" : 0,
            "byteLength" : 4472,
            "byteOffset" : 13416
        },
        {
            "buffer" : 0,
            "byteLength" : 5760,
            "byteOffset" : 17888
        },
        {
            "buffer" : 0,
            "byteLength" : 77751,
            "byteOffset" : 23648
        }
    ],
    "buffers" : [
        {
            "byteLength" : 101400,
            "uri" : "data:application/octet-stream;base64,"
        }
    ]
}
